<svg xmlns="http://www.w3.org/2000/svg" viewBox="0 0 640 480" role="img" aria-label="南極大陸のアイコン">
  <rect width="640" height="480" fill="#4a90c2"/>
  <g stroke="#ffffff" stroke-width="20" stroke-linecap="round">
    <line x1="320" y1="130" x2="320" y2="350"/>
    <line x1="210" y1="175" x2="430" y2="305"/>
    <line x1="430" y1="175" x2="210" y2="305"/>
    <line x1="320" y1="130" x2="286" y2="164"/>
    <line x1="320" y1="130" x2="354" y2="164"/>
    <line x1="320" y1="350" x2="286" y2="316"/>
    <line x1="320" y1="350" x2="354" y2="316"/>
    <line x1="210" y1="175" x2="238" y2="139"/>
    <line x1="210" y1="175" x2="246" y2="191"/>
    <line x1="430" y1="305" x2="402" y2="341"/>
    <line x1="430" y1="305" x2="394" y2="289"/>
    <line x1="430" y1="175" x2="402" y2="139"/>
    <line x1="430" y1="175" x2="394" y2="191"/>
    <line x1="210" y1="305" x2="238" y2="341"/>
    <line x1="210" y1="305" x2="246" y2="289"/>
  </g>
  <circle cx="320" cy="240" r="20" fill="#ffffff"/>
</svg>
